<svg width="11" height="10" viewBox="0 0 11 10" fill="none" xmlns="http://www.w3.org/2000/svg">
  <g clip-path="url(#clip0_65_587)">
    <path
      d="M9.26229 9.15269C9.37232 9.15269 9.42734 9.15269 9.46937 9.13128C9.50633 9.11244 9.53639 9.08238 9.55523 9.04542C9.57664 9.00339 9.57664 8.94837 9.57664 8.83834V4.75173C9.57664 4.64169 9.57664 4.58667 9.55523 4.54465C9.53639 4.50768 9.50633 4.47762 9.46937 4.45879C9.42734 4.43737 9.37232 4.43737 9.26229 4.43737L8.31922 4.43737C8.20919 4.43737 8.15417 4.43737 8.11214 4.45879C8.07517 4.47762 8.04512 4.50768 8.02628 4.54465C8.00487 4.58667 8.00487 4.64169 8.00487 4.75173V5.69479C8.00487 5.80482 8.00487 5.85984 7.98345 5.90187C7.96462 5.93884 7.93456 5.96889 7.89759 5.98773C7.85557 6.00914 7.80055 6.00914 7.69051 6.00914H6.74745C6.63741 6.00914 6.5824 6.00914 6.54037 6.03056C6.5034 6.04939 6.47334 6.07945 6.45451 6.11642C6.43309 6.15845 6.43309 6.21346 6.43309 6.3235V7.26656C6.43309 7.3766 6.43309 7.43161 6.41168 7.47364C6.39284 7.51061 6.36279 7.54067 6.32582 7.5595C6.28379 7.58092 6.22877 7.58092 6.11874 7.58092H5.17568C5.06564 7.58092 5.01062 7.58092 4.9686 7.60233C4.93163 7.62117 4.90157 7.65122 4.88273 7.68819C4.86132 7.73022 4.86132 7.78524 4.86132 7.89527V8.83834C4.86132 8.94837 4.86132 9.00339 4.88273 9.04542C4.90157 9.08238 4.93163 9.11244 4.9686 9.13128C5.01062 9.15269 5.06564 9.15269 5.17568 9.15269L9.26229 9.15269Z"
      stroke="#0569a0" stroke-width="0.785887" stroke-linecap="round" stroke-linejoin="round" />
    <path
      d="M4.86132 3.17995C4.86132 3.06992 4.86132 3.0149 4.88273 2.97287C4.90157 2.9359 4.93163 2.90585 4.9686 2.88701C5.01062 2.8656 5.06564 2.8656 5.17568 2.8656H6.11874C6.22877 2.8656 6.28379 2.8656 6.32582 2.88701C6.36279 2.90585 6.39284 2.9359 6.41168 2.97287C6.43309 3.0149 6.43309 3.06992 6.43309 3.17995V4.12302C6.43309 4.23305 6.43309 4.28807 6.41168 4.3301C6.39284 4.36706 6.36279 4.39712 6.32582 4.41596C6.28379 4.43737 6.22877 4.43737 6.11874 4.43737H5.17568C5.06564 4.43737 5.01062 4.43737 4.9686 4.41596C4.93163 4.39712 4.90157 4.36706 4.88273 4.3301C4.86132 4.28807 4.86132 4.23305 4.86132 4.12302V3.17995Z"
      stroke="#0569a0" stroke-width="0.785887" stroke-linecap="round" stroke-linejoin="round" />
    <path
      d="M2.11072 5.53761C2.11072 5.42758 2.11072 5.37256 2.13213 5.33053C2.15097 5.29356 2.18102 5.26351 2.21799 5.24467C2.26002 5.22326 2.31504 5.22326 2.42507 5.22326H3.36814C3.47817 5.22326 3.53319 5.22326 3.57522 5.24467C3.61218 5.26351 3.64224 5.29356 3.66108 5.33053C3.68249 5.37256 3.68249 5.42758 3.68249 5.53761V6.48068C3.68249 6.59071 3.68249 6.64573 3.66108 6.68776C3.64224 6.72472 3.61218 6.75478 3.57522 6.77362C3.53319 6.79503 3.47817 6.79503 3.36814 6.79503H2.42507C2.31504 6.79503 2.26002 6.79503 2.21799 6.77362C2.18102 6.75478 2.15097 6.72472 2.13213 6.68776C2.11072 6.64573 2.11072 6.59071 2.11072 6.48068V5.53761Z"
      stroke="#0569a0" stroke-width="0.785887" stroke-linecap="round" stroke-linejoin="round" />
    <path
      d="M1.71777 1.60818C1.71777 1.49814 1.71777 1.44313 1.73919 1.4011C1.75802 1.36413 1.78808 1.33407 1.82505 1.31524C1.86708 1.29382 1.92209 1.29382 2.03213 1.29382H2.97519C3.08523 1.29382 3.14024 1.29382 3.18227 1.31524C3.21924 1.33407 3.2493 1.36413 3.26813 1.4011C3.28955 1.44313 3.28955 1.49814 3.28955 1.60818V2.55124C3.28955 2.66128 3.28955 2.71629 3.26813 2.75832C3.2493 2.79529 3.21924 2.82535 3.18227 2.84418C3.14024 2.8656 3.08523 2.8656 2.97519 2.8656H2.03213C1.92209 2.8656 1.86708 2.8656 1.82505 2.84418C1.78808 2.82535 1.75802 2.79529 1.73919 2.75832C1.71777 2.71629 1.71777 2.66128 1.71777 2.55124V1.60818Z"
      stroke="#0569a0" stroke-width="0.785887" stroke-linecap="round" stroke-linejoin="round" />
  </g>
  <defs>
    <clipPath id="clip0_65_587">
      <rect width="9.43064" height="9.43064" fill="#0569a0" transform="translate(0.931885 0.507935)" />
    </clipPath>
  </defs>
</svg>