<svg width="9" height="9" viewBox="0 0 9 9" fill="none" xmlns="http://www.w3.org/2000/svg">
  <g clip-path="url(#clip0_65_588)">
    <path
      d="M4.23839 0.98996V2.674M4.23839 0.98996C3.99816 0.98996 3.7638 1.01511 3.53781 1.06292M4.23839 0.98996C4.47863 0.98996 4.71298 1.01511 4.93898 1.06292M4.23839 2.674C3.30832 2.674 2.55436 3.42798 2.55436 4.35805M4.23839 2.674C5.16847 2.674 5.92244 3.42798 5.92244 4.35805M4.23839 6.04209V7.72613M4.23839 6.04209C5.16847 6.04209 5.92244 5.28812 5.92244 4.35805M4.23839 6.04209C3.30832 6.04209 2.55436 5.28812 2.55436 4.35805M4.23839 7.72613C4.47827 7.72613 4.71228 7.70106 4.93796 7.65338M4.23839 7.72613C3.99763 7.72613 3.76276 7.70087 3.53631 7.65285M1.8568 1.97645L3.0476 3.16725M5.42919 5.54884L6.61999 6.73964M0.870316 4.35805H2.55436M0.870316 4.35805C0.870316 4.5983 0.895463 4.83267 0.943282 5.05868M0.870316 4.35805C0.870316 4.11745 0.895536 3.88273 0.943493 3.65642M5.92244 4.35805H7.60649M7.60649 4.35805C7.60649 4.1178 7.58133 3.88342 7.53351 3.65741M7.60649 4.35805C7.60649 4.59821 7.58134 4.83249 7.53356 5.05841M1.8568 6.73964L3.0476 5.54884M5.42919 3.16725L6.61999 1.97645M6.07288 1.53292C6.4684 1.79028 6.80652 2.12845 7.06382 2.52402M7.06288 6.1935C6.80554 6.5887 6.46751 6.92654 6.07214 7.18365M2.40404 7.18326C2.00908 6.92629 1.67135 6.58874 1.41418 6.19392M1.41315 2.52374C1.67039 2.12835 2.00837 1.79033 2.40372 1.53304"
      stroke="#0569a0" stroke-width="0.673617" stroke-linecap="round" stroke-linejoin="round" />
  </g>
  <defs>
    <clipPath id="clip0_65_588">
      <rect width="8.08341" height="8.08341" fill="#0569a0" transform="translate(0.196686 0.316345)" />
    </clipPath>
  </defs>
</svg>