<svg width="29" height="8" viewBox="0 0 29 8" fill="none" xmlns="http://www.w3.org/2000/svg">
<path d="M7.73146 4.06899C7.73146 4.86208 7.58113 5.53679 7.28047 6.09314C6.98217 6.64948 6.57498 7.07443 6.05888 7.36799C5.54515 7.65919 4.9675 7.80478 4.32592 7.80478C3.67962 7.80478 3.0996 7.658 2.58587 7.36444C2.07214 7.07088 1.66612 6.64593 1.36783 6.08959C1.06953 5.53324 0.920384 4.85971 0.920384 4.06899C0.920384 3.2759 1.06953 2.60119 1.36783 2.04484C1.66612 1.4885 2.07214 1.06473 2.58587 0.773535C3.0996 0.479974 3.67962 0.333193 4.32592 0.333193C4.9675 0.333193 5.54515 0.479974 6.05888 0.773535C6.57498 1.06473 6.98217 1.4885 7.28047 2.04484C7.58113 2.60119 7.73146 3.2759 7.73146 4.06899ZM6.17251 4.06899C6.17251 3.55526 6.09557 3.12202 5.94169 2.76927C5.79018 2.41653 5.57592 2.14901 5.29893 1.96672C5.02195 1.78442 4.69761 1.69328 4.32592 1.69328C3.95424 1.69328 3.6299 1.78442 3.35291 1.96672C3.07592 2.14901 2.86049 2.41653 2.70661 2.76927C2.55509 3.12202 2.47933 3.55526 2.47933 4.06899C2.47933 4.58272 2.55509 5.01596 2.70661 5.3687C2.86049 5.72145 3.07592 5.98897 3.35291 6.17126C3.6299 6.35355 3.95424 6.4447 4.32592 6.4447C4.69761 6.4447 5.02195 6.35355 5.29893 6.17126C5.57592 5.98897 5.79018 5.72145 5.94169 5.3687C6.09557 5.01596 6.17251 4.58272 6.17251 4.06899ZM12.8158 2.52424C12.7874 2.23779 12.6655 2.01525 12.45 1.85663C12.2346 1.69801 11.9422 1.6187 11.5729 1.6187C11.322 1.6187 11.1101 1.65422 10.9373 1.72524C10.7644 1.79389 10.6319 1.88978 10.5395 2.01288C10.4496 2.13599 10.4046 2.27567 10.4046 2.43192C10.3998 2.56212 10.4271 2.67576 10.4863 2.77282C10.5478 2.86989 10.6319 2.95393 10.7384 3.02495C10.8449 3.09361 10.968 3.15398 11.1077 3.20606C11.2474 3.25578 11.3965 3.29839 11.5551 3.3339L12.2086 3.49015C12.5258 3.56118 12.817 3.65587 13.0821 3.77424C13.3473 3.89262 13.5769 4.03821 13.7711 4.21103C13.9652 4.38386 14.1155 4.58745 14.2221 4.82183C14.331 5.0562 14.3866 5.32491 14.389 5.62794C14.3866 6.07301 14.273 6.4589 14.048 6.78561C13.8255 7.10995 13.5035 7.36208 13.0821 7.542C12.6631 7.71956 12.1577 7.80834 11.5658 7.80834C10.9787 7.80834 10.4673 7.71837 10.0317 7.53845C9.59847 7.35853 9.25993 7.09219 9.01609 6.73944C8.77461 6.38433 8.64795 5.94517 8.63612 5.42197H10.124C10.1406 5.66582 10.2105 5.86942 10.3336 6.03277C10.459 6.19375 10.6259 6.31567 10.8343 6.39853C11.045 6.47903 11.2829 6.51927 11.548 6.51927C11.8085 6.51927 12.0346 6.48139 12.2263 6.40564C12.4204 6.32988 12.5708 6.22453 12.6773 6.08959C12.7838 5.95464 12.8371 5.79958 12.8371 5.62439C12.8371 5.46103 12.7886 5.32372 12.6915 5.21245C12.5968 5.10119 12.4571 5.00649 12.2725 4.92836C12.0902 4.85024 11.8665 4.77922 11.6013 4.7153L10.8094 4.51643C10.1962 4.36728 9.71211 4.13409 9.357 3.81686C9.00188 3.49962 8.82551 3.0723 8.82788 2.5349C8.82551 2.09456 8.9427 1.70985 9.17944 1.38078C9.41855 1.05171 9.74644 0.794841 10.1631 0.610182C10.5798 0.425523 11.0533 0.333193 11.5836 0.333193C12.1233 0.333193 12.5944 0.425523 12.9969 0.610182C13.4017 0.794841 13.7166 1.05171 13.9415 1.38078C14.1664 1.70985 14.2824 2.09101 14.2895 2.52424H12.8158ZM15.4232 7.70535V0.432625H18.2925C18.8418 0.432625 19.3105 0.530873 19.6988 0.72737C20.0894 0.921498 20.3865 1.1973 20.5901 1.55478C20.7961 1.9099 20.8991 2.32775 20.8991 2.80834C20.8991 3.29129 20.7949 3.70677 20.5866 4.05478C20.3782 4.40043 20.0764 4.66558 19.681 4.85024C19.288 5.0349 18.8122 5.12723 18.2535 5.12723H16.3323V3.89143H18.0049C18.2985 3.89143 18.5423 3.85119 18.7364 3.77069C18.9306 3.6902 19.075 3.56946 19.1697 3.40848C19.2667 3.24749 19.3153 3.04745 19.3153 2.80834C19.3153 2.56686 19.2667 2.36326 19.1697 2.19754C19.075 2.03182 18.9294 1.90635 18.7329 1.82112C18.5388 1.73353 18.2937 1.68973 17.9978 1.68973H16.9609V7.70535H15.4232ZM19.3508 4.39569L21.1583 7.70535H19.4609L17.6924 4.39569H19.3508ZM23.1043 0.432625L24.8621 5.95819H24.9296L26.691 0.432625H28.3955L25.8884 7.70535H23.9069L21.3962 0.432625H23.1043Z" fill="#0369A1"/>
</svg>
